<svg width="20" height="20" viewBox="0 0 20 20" xmlns="http://www.w3.org/2000/svg">
    <g fill="none" fill-rule="evenodd">
        <path d="M0 0h20v20H0z"/>
        <path d="M15.568 4.432a1.476 1.476 0 0 1 0 2.088L12.088 10l3.48 3.48c.54.54.574 1.396.1 1.975l-.1.113c-.54.54-1.396.574-1.976.1l-.112-.1-3.48-3.48-3.48 3.48a1.476 1.476 0 1 1-2.088-2.088L7.912 10l-3.48-3.48a1.477 1.477 0 0 1-.1-1.975l.1-.113a1.477 1.477 0 0 1 1.976-.1l.112.1L10 7.912l3.48-3.48a1.476 1.476 0 0 1 2.088 0z" fill="#C0C0CC"/>
    </g>
</svg>
